<svg width="135" height="56" viewBox="0 0 135 56" fill="none" xmlns="http://www.w3.org/2000/svg">
<path d="M39.4519 7.89036V0L31.5615 0V7.89036L39.4519 7.89036Z" fill="#F42F3B"/>
<path d="M94.6843 7.89036L94.6843 0L102.575 -3.44899e-07L102.575 7.89036L94.6843 7.89036Z" fill="#F42F3B"/>
<path d="M55.2324 31.5615H63.1228V23.6711H55.2324V31.5615Z" fill="#F42F3B"/>
<path d="M78.9036 31.5615L71.0132 31.5615L71.0132 23.6711L78.9036 23.6711L78.9036 31.5615Z" fill="#F42F3B"/>
<path d="M39.4519 23.6712V15.7808H31.5615V23.6712H39.4519Z" fill="#FF701E"/>
<path d="M94.6843 23.6712L94.6843 15.7808L102.575 15.7808L102.575 23.6712L94.6843 23.6712Z" fill="#FF701E"/>
<path d="M31.5615 23.6712V15.7808H23.6711V23.6712H31.5615Z" fill="#F42F3B"/>
<path d="M102.575 23.6712L102.575 15.7808L110.465 15.7808L110.465 23.6712L102.575 23.6712Z" fill="#F42F3B"/>
<path d="M31.5615 39.4519V31.5615H23.6711V39.4519H31.5615Z" fill="#F42F3B"/>
<path d="M102.575 39.4519L102.575 31.5615L110.465 31.5615L110.465 39.4519L102.575 39.4519Z" fill="#F42F3B"/>
<path d="M47.3423 39.4519V31.5615H39.4519V39.4519H47.3423Z" fill="#F42F3B"/>
<path d="M86.7939 39.4519L86.7939 31.5615L94.6843 31.5615L94.6843 39.4519L86.7939 39.4519Z" fill="#F42F3B"/>
<path d="M47.3423 23.6712V15.7808H39.4519V23.6712H47.3423Z" fill="#F42F3B"/>
<path d="M86.7939 23.6712L86.7939 15.7808L94.6843 15.7808L94.6843 23.6712L86.7939 23.6712Z" fill="#F42F3B"/>
<path d="M39.4519 31.5615H47.3423V23.6711H39.4519V31.5615Z" fill="#FFDE31"/>
<path d="M94.6843 31.5615L86.7939 31.5615L86.7939 23.6711L94.6843 23.6711L94.6843 31.5615Z" fill="#FFDE31"/>
<path d="M39.4519 39.4519V31.5615H31.5615V39.4519H39.4519Z" fill="#FF701E"/>
<path d="M94.6843 39.4519L94.6843 31.5615L102.575 31.5615L102.575 39.4519L94.6843 39.4519Z" fill="#FF701E"/>
<path d="M23.6711 31.5615H31.5615V23.6711H23.6711V31.5615Z" fill="#FFDE31"/>
<path d="M110.465 31.5615L102.575 31.5615L102.575 23.6711L110.465 23.6711L110.465 31.5615Z" fill="#FFDE31"/>
<path d="M39.4519 47.3423V39.4519H31.5615V47.3423H39.4519Z" fill="#F42F3B"/>
<path d="M94.6843 47.3423L94.6843 39.4519L102.575 39.4519L102.575 47.3423L94.6843 47.3423Z" fill="#F42F3B"/>
<path d="M15.7807 31.5615H23.6711V23.6711H15.7807V31.5615Z" fill="#FF701E"/>
<path d="M118.355 31.5615L110.465 31.5615L110.465 23.6711L118.355 23.6711L118.355 31.5615Z" fill="#FF701E"/>
<path d="M39.4519 55.2327V47.3423H31.5615V55.2327H39.4519Z" fill="#F42F3B"/>
<path d="M94.6843 55.2327L94.6843 47.3423L102.575 47.3423L102.575 55.2327L94.6843 55.2327Z" fill="#F42F3B"/>
<path d="M7.89043 31.5615H15.7808L15.7808 23.6711H7.89043L7.89043 31.5615Z" fill="#FF701E"/>
<path d="M126.245 31.5615L118.355 31.5615L118.355 23.6711L126.245 23.6711L126.245 31.5615Z" fill="#FF701E"/>
<path d="M2.09808e-05 31.5615H7.89038L7.89038 23.6711H2.09808e-05L2.09808e-05 31.5615Z" fill="#F42F3B"/>
<path d="M134.136 31.5615L126.246 31.5615L126.246 23.6711L134.136 23.6711L134.136 31.5615Z" fill="#F42F3B"/>
<path d="M39.4519 15.7807V7.89038L31.5615 7.89038V15.7807H39.4519Z" fill="#F42F3B"/>
<path d="M94.6843 15.7807L94.6843 7.89038L102.575 7.89038L102.575 15.7807L94.6843 15.7807Z" fill="#F42F3B"/>
<path d="M47.3423 31.5615H55.2327V23.6711H47.3423V31.5615Z" fill="#F42F3B"/>
<path d="M86.794 31.5615L78.9036 31.5615L78.9036 23.6711L86.794 23.6711L86.794 31.5615Z" fill="#F42F3B"/>
<path d="M39.4519 31.5615V23.6711H31.5615V31.5615H39.4519Z" fill="#FFF065"/>
<path d="M94.6843 31.5615L94.6843 23.6711L102.575 23.6711L102.575 31.5615L94.6843 31.5615Z" fill="#FFF065"/>
<path d="M39.4519 7.89036V0L31.5615 0V7.89036L39.4519 7.89036Z" fill="#F42F3B"/>
<path d="M94.6843 7.89036L94.6843 0L102.575 -3.44899e-07L102.575 7.89036L94.6843 7.89036Z" fill="#F42F3B"/>
<path d="M55.2324 31.5615H63.1228V23.6711H55.2324V31.5615Z" fill="#F42F3B"/>
<path d="M78.9036 31.5615L71.0132 31.5615L71.0132 23.6711L78.9036 23.6711L78.9036 31.5615Z" fill="#F42F3B"/>
<path d="M39.4519 23.6712V15.7808H31.5615V23.6712H39.4519Z" fill="#FF701E"/>
<path d="M94.6843 23.6712L94.6843 15.7808L102.575 15.7808L102.575 23.6712L94.6843 23.6712Z" fill="#FF701E"/>
<path d="M31.5615 23.6712V15.7808H23.6711V23.6712H31.5615Z" fill="#F42F3B"/>
<path d="M102.575 23.6712L102.575 15.7808L110.465 15.7808L110.465 23.6712L102.575 23.6712Z" fill="#F42F3B"/>
<path d="M31.5615 39.4519V31.5615H23.6711V39.4519H31.5615Z" fill="#F42F3B"/>
<path d="M102.575 39.4519L102.575 31.5615L110.465 31.5615L110.465 39.4519L102.575 39.4519Z" fill="#F42F3B"/>
<path d="M47.3423 39.4519V31.5615H39.4519V39.4519H47.3423Z" fill="#F42F3B"/>
<path d="M86.7939 39.4519L86.7939 31.5615L94.6843 31.5615L94.6843 39.4519L86.7939 39.4519Z" fill="#F42F3B"/>
<path d="M47.3423 23.6712V15.7808H39.4519V23.6712H47.3423Z" fill="#F42F3B"/>
<path d="M86.7939 23.6712L86.7939 15.7808L94.6843 15.7808L94.6843 23.6712L86.7939 23.6712Z" fill="#F42F3B"/>
<path d="M39.4519 31.5615H47.3423V23.6711H39.4519V31.5615Z" fill="#FFDE31"/>
<path d="M94.6843 31.5615L86.7939 31.5615L86.7939 23.6711L94.6843 23.6711L94.6843 31.5615Z" fill="#FFDE31"/>
<path d="M39.4519 39.4519V31.5615H31.5615V39.4519H39.4519Z" fill="#FF701E"/>
<path d="M94.6843 39.4519L94.6843 31.5615L102.575 31.5615L102.575 39.4519L94.6843 39.4519Z" fill="#FF701E"/>
<path d="M23.6711 31.5615H31.5615V23.6711H23.6711V31.5615Z" fill="#FFDE31"/>
<path d="M110.465 31.5615L102.575 31.5615L102.575 23.6711L110.465 23.6711L110.465 31.5615Z" fill="#FFDE31"/>
<path d="M39.4519 47.3423V39.4519H31.5615V47.3423H39.4519Z" fill="#F42F3B"/>
<path d="M94.6843 47.3423L94.6843 39.4519L102.575 39.4519L102.575 47.3423L94.6843 47.3423Z" fill="#F42F3B"/>
<path d="M15.7807 31.5615H23.6711V23.6711H15.7807V31.5615Z" fill="#FF701E"/>
<path d="M118.355 31.5615L110.465 31.5615L110.465 23.6711L118.355 23.6711L118.355 31.5615Z" fill="#FF701E"/>
<path d="M39.4519 55.2327V47.3423H31.5615V55.2327H39.4519Z" fill="#F42F3B"/>
<path d="M94.6843 55.2327L94.6843 47.3423L102.575 47.3423L102.575 55.2327L94.6843 55.2327Z" fill="#F42F3B"/>
<path d="M7.89043 31.5615H15.7808L15.7808 23.6711H7.89043L7.89043 31.5615Z" fill="#FF701E"/>
<path d="M126.245 31.5615L118.355 31.5615L118.355 23.6711L126.245 23.6711L126.245 31.5615Z" fill="#FF701E"/>
<path d="M2.09808e-05 31.5615H7.89038L7.89038 23.6711H2.09808e-05L2.09808e-05 31.5615Z" fill="#F42F3B"/>
<path d="M134.136 31.5615L126.246 31.5615L126.246 23.6711L134.136 23.6711L134.136 31.5615Z" fill="#F42F3B"/>
<path d="M39.4519 15.7807V7.89038L31.5615 7.89038V15.7807H39.4519Z" fill="#F42F3B"/>
<path d="M94.6843 15.7807L94.6843 7.89038L102.575 7.89038L102.575 15.7807L94.6843 15.7807Z" fill="#F42F3B"/>
<path d="M47.3423 31.5615H55.2327V23.6711H47.3423V31.5615Z" fill="#F42F3B"/>
<path d="M86.794 31.5615L78.9036 31.5615L78.9036 23.6711L86.794 23.6711L86.794 31.5615Z" fill="#F42F3B"/>
<path d="M39.4519 31.5615V23.6711H31.5615V31.5615H39.4519Z" fill="#FFF065"/>
<path d="M94.6843 31.5615L94.6843 23.6711L102.575 23.6711L102.575 31.5615L94.6843 31.5615Z" fill="#FFF065"/>
<path d="M39.4519 7.89036V0L31.5615 0V7.89036L39.4519 7.89036Z" fill="#F42F3B"/>
<path d="M94.6843 7.89036L94.6843 0L102.575 -3.44899e-07L102.575 7.89036L94.6843 7.89036Z" fill="#F42F3B"/>
<path d="M55.2324 31.5615H63.1228V23.6711H55.2324V31.5615Z" fill="#F42F3B"/>
<path d="M78.9036 31.5615L71.0132 31.5615L71.0132 23.6711L78.9036 23.6711L78.9036 31.5615Z" fill="#F42F3B"/>
<path d="M39.4519 23.6712V15.7808H31.5615V23.6712H39.4519Z" fill="#FF701E"/>
<path d="M94.6843 23.6712L94.6843 15.7808L102.575 15.7808L102.575 23.6712L94.6843 23.6712Z" fill="#FF701E"/>
<path d="M31.5615 23.6712V15.7808H23.6711V23.6712H31.5615Z" fill="#F42F3B"/>
<path d="M102.575 23.6712L102.575 15.7808L110.465 15.7808L110.465 23.6712L102.575 23.6712Z" fill="#F42F3B"/>
<path d="M31.5615 39.4519V31.5615H23.6711V39.4519H31.5615Z" fill="#F42F3B"/>
<path d="M102.575 39.4519L102.575 31.5615L110.465 31.5615L110.465 39.4519L102.575 39.4519Z" fill="#F42F3B"/>
<path d="M47.3423 39.4519V31.5615H39.4519V39.4519H47.3423Z" fill="#F42F3B"/>
<path d="M86.7939 39.4519L86.7939 31.5615L94.6843 31.5615L94.6843 39.4519L86.7939 39.4519Z" fill="#F42F3B"/>
<path d="M47.3423 23.6712V15.7808H39.4519V23.6712H47.3423Z" fill="#F42F3B"/>
<path d="M86.7939 23.6712L86.7939 15.7808L94.6843 15.7808L94.6843 23.6712L86.7939 23.6712Z" fill="#F42F3B"/>
<path d="M39.4519 31.5615H47.3423V23.6711H39.4519V31.5615Z" fill="#FFDE31"/>
<path d="M94.6843 31.5615L86.7939 31.5615L86.7939 23.6711L94.6843 23.6711L94.6843 31.5615Z" fill="#FFDE31"/>
<path d="M39.4519 39.4519V31.5615H31.5615V39.4519H39.4519Z" fill="#FF701E"/>
<path d="M94.6843 39.4519L94.6843 31.5615L102.575 31.5615L102.575 39.4519L94.6843 39.4519Z" fill="#FF701E"/>
<path d="M23.6711 31.5615H31.5615V23.6711H23.6711V31.5615Z" fill="#FFDE31"/>
<path d="M110.465 31.5615L102.575 31.5615L102.575 23.6711L110.465 23.6711L110.465 31.5615Z" fill="#FFDE31"/>
<path d="M39.4519 47.3423V39.4519H31.5615V47.3423H39.4519Z" fill="#F42F3B"/>
<path d="M94.6843 47.3423L94.6843 39.4519L102.575 39.4519L102.575 47.3423L94.6843 47.3423Z" fill="#F42F3B"/>
<path d="M15.7807 31.5615H23.6711V23.6711H15.7807V31.5615Z" fill="#FF701E"/>
<path d="M118.355 31.5615L110.465 31.5615L110.465 23.6711L118.355 23.6711L118.355 31.5615Z" fill="#FF701E"/>
<path d="M39.4519 55.2327V47.3423H31.5615V55.2327H39.4519Z" fill="#F42F3B"/>
<path d="M94.6843 55.2327L94.6843 47.3423L102.575 47.3423L102.575 55.2327L94.6843 55.2327Z" fill="#F42F3B"/>
<path d="M7.89043 31.5615H15.7808L15.7808 23.6711H7.89043L7.89043 31.5615Z" fill="#FF701E"/>
<path d="M126.245 31.5615L118.355 31.5615L118.355 23.6711L126.245 23.6711L126.245 31.5615Z" fill="#FF701E"/>
<path d="M2.09808e-05 31.5615H7.89038L7.89038 23.6711H2.09808e-05L2.09808e-05 31.5615Z" fill="#F42F3B"/>
<path d="M134.136 31.5615L126.246 31.5615L126.246 23.6711L134.136 23.6711L134.136 31.5615Z" fill="#F42F3B"/>
<path d="M39.4519 15.7807V7.89038L31.5615 7.89038V15.7807H39.4519Z" fill="#F42F3B"/>
<path d="M94.6843 15.7807L94.6843 7.89038L102.575 7.89038L102.575 15.7807L94.6843 15.7807Z" fill="#F42F3B"/>
<path d="M47.3423 31.5615H55.2327V23.6711H47.3423V31.5615Z" fill="#F42F3B"/>
<path d="M86.794 31.5615L78.9036 31.5615L78.9036 23.6711L86.794 23.6711L86.794 31.5615Z" fill="#F42F3B"/>
<path d="M39.4519 31.5615V23.6711H31.5615V31.5615H39.4519Z" fill="#FFF065"/>
<path d="M94.6843 31.5615L94.6843 23.6711L102.575 23.6711L102.575 31.5615L94.6843 31.5615Z" fill="#FFF065"/>
</svg>
